{"title":"Damned By Dawn DvDScr H264 Feel-Free","uid":5912945,"size":744242161,"categoryP":"video","categoryS":"movies","magnet":"?xt=urn:btih:0aeb85804945bb45143f732667b3c6e702700b3f&amp;dn=Damned+By+Dawn+DvDScr+H264+Feel-Free&amp;tr=udp%3A%2F%2Ftracker.openbittorrent.com%3A80&amp;tr=udp%3A%2F%2Fopen.demonii.com%3A1337&amp;tr=udp%3A%2F%2Ftracker.coppersurfer.tk%3A6969&amp;tr=udp%3A%2F%2Fexodus.desync.com%3A6969","seeders":0,"leechers":0,"uploader":"neon","files":-1,"time":1288115177,"description":"Plot:\nDuring a violent thunderstorm, a family is awoken by piercing shrieks which summon the dead to rise again. Their lives explode in a blood soaked fury as they battle malevolent spirits, whilst fighting to save their souls from eternal torment with... the Banshee.\n\nGenre:Horror\nLanguage:English\n &lt;a href=&quot; http://www.imdb.com/title/tt1442492/&quot; rel=&quot;nofollow&quot; target=&quot;_NEW&quot;&gt; http://www.imdb.com/title/tt1442492/&lt;/a&gt;\nSource:DVDScr-DMZ.Thx\n &lt;a href=&quot;\nhttp://img208.imageshack.us/img208/8422/damnedbydawndvdscrh264f.jpg&quot; rel=&quot;nofollow&quot; target=&quot;_NEW&quot;&gt;\nhttp://img208.imageshack.us/img208/8422/damnedbydawndvdscrh264f.jpg&lt;/a&gt; &lt;a href=&quot;\nhttp://img249.imageshack.us/img249/8422/damnedbydawndvdscrh264f.jpg&quot; rel=&quot;nofollow&quot; target=&quot;_NEW&quot;&gt;\nhttp://img249.imageshack.us/img249/8422/damnedbydawndvdscrh264f.jpg&lt;/a&gt; &lt;a href=&quot;\nhttp://img263.imageshack.us/img263/8422/damnedbydawndvdscrh264f.jpg&quot; rel=&quot;nofollow&quot; target=&quot;_NEW&quot;&gt;\nhttp://img263.imageshack.us/img263/8422/damnedbydawndvdscrh264f.jpg&lt;/a&gt; &lt;a href=&quot;\nhttp://img175.imageshack.us/img175/8422/damnedbydawndvdscrh264f.jpg&quot; rel=&quot;nofollow&quot; target=&quot;_NEW&quot;&gt;\nhttp://img175.imageshack.us/img175/8422/damnedbydawndvdscrh264f.jpg&lt;/a&gt;\n &lt;a href=&quot;\nhttp://www.youtube.com/watch?v=PHJLpiLy7pA&amp;feature=player_embedded&quot; rel=&quot;nofollow&quot; target=&quot;_NEW&quot;&gt;\nhttp://www.youtube.com/watch?v=PHJLpiLy7pA&amp;feature=player_embedded&lt;/a&gt;\n\nGeneral\nComplete name :Damned By Dawn DvDScr H264 Feel-Free\nFormat : MPEG-4\nFormat profile : Base Media / Version 2\nCodec ID : mp42\nFile size : 710 MiB\nDuration : 1h 24mn\nOverall bit rate : 1 174 Kbps\nVideo #1\nCodec ID : avc1\nCodec ID/Info : Advanced Video Coding\nDuration : 1h 24mn\nBit rate mode : Variable\nBit rate : 693 Kbps\nWidth : 720 pixels\nHeight : 384 pixels\nDisplay aspect ratio : 1.875\nFrame rate mode : Constant\nFrame rate : 23.976 fps\nResolution : 24 bits\nColorimetry : 4:2:0\nScan type : Progressive\nBits/(Pixel*Frame) : 0.105\nStream size : 419 MiB (59%)\nAudio #2\nID : 2\nFormat : AAC\nFormat/Info : Advanced Audio Codec\nFormat version : Version 4\nFormat profile : LC\nFormat settings, SBR : No\nCodec ID : 40\nDuration : 1h 24mn\nBit rate mode : Constant\nBit rate : 477 Kbps\nNominal bit rate : 480 Kbps\nChannel(s) : 6 channels\nChannel positions : Front: L C R, Rear: L R, LFE\nSampling rate : 48.0 KHz\nResolution : 16 bits\nStream size : 288 MiB (41%)","torrent":{"xt":"urn:btih:0aeb85804945bb45143f732667b3c6e702700b3f","amp;dn":"Damned+By+Dawn+DvDScr+H264+Feel-Free","amp;tr":["udp%3A%2F%2Ftracker.openbittorrent.com%3A80","udp%3A%2F%2Fopen.demonii.com%3A1337","udp%3A%2F%2Ftracker.coppersurfer.tk%3A6969","udp%3A%2F%2Fexodus.desync.com%3A6969"],"infoHash":"0aeb85804945bb45143f732667b3c6e702700b3f","infoHashBuffer":{"type":"Buffer","data":[10,235,133,128,73,69,187,69,20,63,115,38,103,179,198,231,2,112,11,63]},"announce":[],"urlList":[]}}